<?xml version="1.0" encoding="UTF-8"?>
<svg version="1.1" xmlns="http://www.w3.org/2000/svg" width="121" height="45">
<path d="M0 0 C2.61611709 0.87048736 5.06733165 1.94862886 7.5703125 3.10546875 C8.53324219 3.55019531 9.49617188 3.99492187 10.48828125 4.453125 C13.41585635 5.8345349 16.31582104 7.25181097 19.1953125 8.73046875 C19.82156448 18.66352094 19.82156448 18.66352094 17.5078125 22.60546875 C16.363125 23.65734375 16.363125 23.65734375 15.1953125 24.73046875 C14.4528125 25.49359375 13.7103125 26.25671875 12.9453125 27.04296875 C12.0378125 27.92984375 11.1303125 28.81671875 10.1953125 29.73046875 C8.75647342 31.16662842 7.31904542 32.60420279 5.8828125 34.04296875 C4.65364583 35.27213542 3.42447917 36.50130208 2.1953125 37.73046875 C-3.13802083 35.06380208 -8.47135417 32.39713542 -13.8046875 29.73046875 C-14.52430664 29.40159668 -15.24392578 29.07272461 -15.98535156 28.73388672 C-17.8046875 27.73046875 -17.8046875 27.73046875 -18.8046875 25.73046875 C-19.63906753 21.85463892 -19.76615122 18.59119163 -18.8046875 14.73046875 C-15.58754675 10.74859782 -12.0286075 7.6542332 -7.8046875 4.73046875 C-7.1446875 4.73046875 -6.4846875 4.73046875 -5.8046875 4.73046875 C-5.8046875 4.07046875 -5.8046875 3.41046875 -5.8046875 2.73046875 C-2.5743668 -0.38448335 -2.5743668 -0.38448335 0 0 Z " fill="#EDE88A" transform="translate(25.8046875,5.26953125)"/>
<path d="M0 0 C1.65 0 3.3 0 5 0 C5.66 1.65 6.32 3.3 7 5 C7.391875 4.175 7.78375 3.35 8.1875 2.5 C8.785625 1.675 9.38375 0.85 10 0 C12.6875 -0.3125 12.6875 -0.3125 15 0 C15.33 1.98 15.66 3.96 16 6 C16.33 5.67 16.66 5.34 17 5 C19.33293334 4.95679753 21.6670134 4.95977609 24 5 C24.99 5 25.98 5 27 5 C35 5 43 5 51 5 C51.495 6.98 51.495 6.98 52 9 C52.33 7.68 52.66 6.36 53 5 C54.65 5 56.3 5 58 5 C57.59374103 10.17980188 56.96249623 13.46588175 53 17 C49.75 17.3125 49.75 17.3125 47 17 C47 16.34 47 15.68 47 15 C47.66 15 48.32 15 49 15 C48.34 13.68 47.68 12.36 47 11 C45.35 11 43.7 11 42 11 C44.475 11.99 44.475 11.99 47 13 C47 13.33 47 13.66 47 14 C31.33333333 14 15.66666667 14 0 14 C0 9.38 0 4.76 0 0 Z M20 8 C20 8.99 20 9.98 20 11 C20.66 10.34 21.32 9.68 22 9 C21.34 8.67 20.68 8.34 20 8 Z " fill="#FFFFFF" transform="translate(58,7)"/>
<path d="M0 0 C0.72002197 0.00016113 1.44004395 0.00032227 2.18188477 0.00048828 C4.37725466 -0.00388351 6.57061129 -0.04019075 8.765625 -0.078125 C10.15949833 -0.08399352 11.55338121 -0.08796268 12.94726562 -0.08984375 C14.85270142 -0.10217041 14.85270142 -0.10217041 16.79663086 -0.11474609 C19.95117188 0.37109375 19.95117188 0.37109375 21.90063477 2.23583984 C22.95117188 4.37109375 22.95117188 4.37109375 22.76367188 6.99609375 C21.95117188 9.37109375 21.95117188 9.37109375 19.95117188 11.37109375 C16.91015625 11.62988281 16.91015625 11.62988281 13.04492188 11.63671875 C12.02416565 11.63958893 12.02416565 11.63958893 10.98278809 11.64251709 C9.54369741 11.64387838 8.10459444 11.6401858 6.66552734 11.63183594 C4.459681 11.62113503 2.25464906 11.63173247 0.04882812 11.64453125 C-1.34830909 11.64320964 -2.7454458 11.64064723 -4.14257812 11.63671875 C-5.41810547 11.63446289 -6.69363281 11.63220703 -8.0078125 11.62988281 C-11.04882812 11.37109375 -11.04882812 11.37109375 -13.04882812 9.37109375 C-13.29882812 5.87109375 -13.29882812 5.87109375 -13.04882812 2.37109375 C-9.60778609 -1.06994829 -4.64991749 0.0328224 0 0 Z " fill="#DA3821" transform="translate(93.048828125,29.62890625)"/>
<path d="M0 0 C0.886875 0.515625 1.77375 1.03125 2.6875 1.5625 C5.20051708 3.01849546 7.73169773 4.37057782 10.32421875 5.68359375 C11.49597656 6.28300781 12.66773438 6.88242187 13.875 7.5 C15.00679687 8.0671875 16.13859375 8.634375 17.3046875 9.21875 C20 11 20 11 20.8828125 12.78125 C21.04540335 15.85963678 21.05926297 18.91832581 21 22 C15.66666667 19.33333333 10.33333333 16.66666667 5 14 C4.28038086 13.67112793 3.56076172 13.34225586 2.81933594 13.00341797 C1 12 1 12 0 10 C-0.06996014 8.29297265 -0.08440154 6.58331997 -0.0625 4.875 C-0.05347656 3.96492188 -0.04445313 3.05484375 -0.03515625 2.1171875 C-0.02355469 1.41851563 -0.01195312 0.71984375 0 0 Z " fill="#D79A77" transform="translate(7,21)"/>
<path d="M0 0 C0.85623951 4.39363305 1.3861488 8.71666114 -1.03125 12.69873047 C-3.97597996 16.52096366 -7.28933209 19.92299173 -11 23 C-11.99 23 -12.98 23 -14 23 C-14.24954005 21.56589632 -14.47392642 20.12739928 -14.6875 18.6875 C-14.87892578 17.48673828 -14.87892578 17.48673828 -15.07421875 16.26171875 C-15 14 -15 14 -13.64453125 12.20703125 C-12 11 -12 11 -10 11 C-9.731875 10.0925 -9.46375 9.185 -9.1875 8.25 C-8.08378891 5.22931703 -7.21430079 3.29946621 -5 1 C-3.24357632 0.38008576 -1.85558971 0 0 0 Z " fill="#D9A995" transform="translate(44,15)"/>
<path d="M0 0 C5.75 1.875 5.75 1.875 8 3 C7.54247264 7.35690824 4.6938899 9.8570805 1.75 12.8125 C1.27175781 13.32748047 0.79351562 13.84246094 0.30078125 14.37304688 C-1.140625 15.83203125 -1.140625 15.83203125 -4 18 C-7.59894386 17.93159902 -8.96995319 17.0200312 -12 15 C-10.71700242 12.13792848 -9.469364 9.9754912 -7 8 C-6.01 8 -5.02 8 -4 8 C-4.33 7.34 -4.66 6.68 -5 6 C-3.35 4.02 -1.7 2.04 0 0 Z " fill="#F9FA8C" transform="translate(31,12)"/>
<path d="M0 0 C2.78782159 1.14792654 5.45395704 2.478773 8.125 3.875 C7.465 4.535 6.805 5.195 6.125 5.875 C5.23554688 5.64941406 4.34609375 5.42382812 3.4296875 5.19140625 C-0.72775247 4.79335349 -1.88137218 5.82457409 -5.0234375 8.34179688 C-5.87808594 9.06979492 -5.87808594 9.06979492 -6.75 9.8125 C-7.63945312 10.53469727 -7.63945312 10.53469727 -8.546875 11.27148438 C-10.00242947 12.45705697 -11.44053039 13.66400118 -12.875 14.875 C-12.565625 15.49375 -12.25625 16.1125 -11.9375 16.75 C-11.25 18.125 -10.5625 19.5 -9.875 20.875 C-13.84743168 19.55085611 -16.00988574 17.8870432 -18.875 14.875 C-17.08871169 13.20222165 -15.2964925 11.53675557 -13.5 9.875 C-12.99210938 9.39804688 -12.48421875 8.92109375 -11.9609375 8.4296875 C-8.1015625 4.875 -8.1015625 4.875 -5.875 4.875 C-5.875 4.215 -5.875 3.555 -5.875 2.875 C-2.70640878 -0.18042725 -2.70640878 -0.18042725 0 0 Z " fill="#F4DFCD" transform="translate(25.875,5.125)"/>
<path d="M0 0 C1.65 0 3.3 0 5 0 C5.05423638 1.91635217 5.09289963 3.83314925 5.125 5.75 C5.14820313 6.81734375 5.17140625 7.8846875 5.1953125 8.984375 C5.00487687 11.92470106 4.52670104 13.52361878 3 16 C1.68 15.67 0.36 15.34 -1 15 C-1 11.68757696 -0.8133998 8.54069789 -0.5 5.25 C-0.36078125 3.77273438 -0.36078125 3.77273438 -0.21875 2.265625 C-0.11046875 1.14414063 -0.11046875 1.14414063 0 0 Z " fill="#FFFFFF" transform="translate(52,7)"/>
<path d="M0 0 C0.66 0.33 1.32 0.66 2 1 C0.7934375 2.0828125 0.7934375 2.0828125 -0.4375 3.1875 C-4.18703438 7.30284261 -4.15401625 10.6094312 -4 16 C-3.34 16.33 -2.68 16.66 -2 17 C-3.32 17.99 -4.64 18.98 -6 20 C-6.33 16.7 -6.66 13.4 -7 10 C-7.86625 9.731875 -8.7325 9.46375 -9.625 9.1875 C-12.96886599 8.01095456 -15.96428794 6.83554683 -19 5 C-19.875 2.8125 -19.875 2.8125 -20 1 C-15.35236542 2.63295269 -15.35236542 2.63295269 -13.5 4.5625 C-12.00700701 6.13523526 -12.00700701 6.13523526 -9.75 7.125 C-5.6397577 6.9381708 -4.04547211 4.49730544 -1.35546875 1.56640625 C-0.68451172 0.79103516 -0.68451172 0.79103516 0 0 Z " fill="#E3C9A1" transform="translate(34,22)"/>
<path d="M0 0 C2 2 2 2 2.125 5.625 C2.08375 6.73875 2.0425 7.8525 2 9 C1.01 9 0.02 9 -1 9 C-1.66 10.98 -2.32 12.96 -3 15 C-3.66 15 -4.32 15 -5 15 C-5.24954005 13.56589632 -5.47392642 12.12739928 -5.6875 10.6875 C-5.81511719 9.88699219 -5.94273438 9.08648437 -6.07421875 8.26171875 C-6 6 -6 6 -4.64453125 4.20703125 C-3 3 -3 3 -1 3 C-0.67 2.01 -0.34 1.02 0 0 Z " fill="#CB7368" transform="translate(35,23)"/>
<path d="M0 0 C0.33 0 0.66 0 1 0 C1.24249682 6.42616563 -0.21009324 9.00421382 -4 14 C-5.4783226 11.04335481 -5.06032783 8.25770263 -5 5 C-4.01 4.67 -3.02 4.34 -2 4 C-0.79117904 1.99983534 -0.79117904 1.99983534 0 0 Z " fill="#C7796C" transform="translate(43,15)"/>
<path d="M0 0 C1.4589426 0.47730838 2.91713496 0.95691042 4.375 1.4375 C5.18710937 1.70433594 5.99921875 1.97117187 6.8359375 2.24609375 C9 3 9 3 11 4 C11 7.63 11 11.26 11 15 C10.67 15 10.34 15 10 15 C9.67 12.03 9.34 9.06 9 6 C8.01 6.495 8.01 6.495 7 7 C5.0546875 6.00390625 5.0546875 6.00390625 2.875 4.5625 C2.15054688 4.08941406 1.42609375 3.61632812 0.6796875 3.12890625 C0.12539063 2.75636719 -0.42890625 2.38382813 -1 2 C-0.67 1.34 -0.34 0.68 0 0 Z " fill="#EEDACB" transform="translate(34,10)"/>
<path d="M0 0 C1.98 0 3.96 0 6 0 C6 1.98 6 3.96 6 6 C4.02 6 2.04 6 0 6 C0 4.02 0 2.04 0 0 Z " fill="#F9DEDB" transform="translate(91,33)"/>
<path d="M0 0 C0 1.98 0 3.96 0 6 C-1.98 6 -3.96 6 -6 6 C-6 4.02 -6 2.04 -6 0 C-3 -1 -3 -1 0 0 Z " fill="#F9E1DE" transform="translate(104,33)"/>
<path d="M0 0 C0 2.31 0 4.62 0 7 C-1.65 7 -3.3 7 -5 7 C-5 5.02 -5 3.04 -5 1 C-1.125 0 -1.125 0 0 0 Z " fill="#F7D7D2" transform="translate(89,32)"/>
<path d="M0 0 C2.1519437 3.22791555 2.20086443 4.28400809 2 8 C2.66 8.33 3.32 8.66 4 9 C2.68 9.99 1.36 10.98 0 12 C-0.19401633 10.18818595 -0.38004375 8.37551468 -0.5625 6.5625 C-0.66691406 5.55316406 -0.77132813 4.54382812 -0.87890625 3.50390625 C-0.91886719 2.67761719 -0.95882813 1.85132812 -1 1 C-0.67 0.67 -0.34 0.34 0 0 Z " fill="#E0B999" transform="translate(28,30)"/>
<path d="M0 0 C2.0625 0.4375 2.0625 0.4375 4 1 C4 2.65 4 4.3 4 6 C2.68 6 1.36 6 0 6 C-0.38218767 4.34385343 -0.71395102 2.67542976 -1 1 C-0.67 0.67 -0.34 0.34 0 0 Z " fill="#FCEEEC" transform="translate(107,33)"/>
<path d="M0 0 C-0.33 2.64 -0.66 5.28 -1 8 C-1.66 8 -2.32 8 -3 8 C-3.33 5.69 -3.66 3.38 -4 1 C-2 0 -2 0 0 0 Z " fill="#C5866B" transform="translate(20,29)"/>
<path d="M0 0 C1.32 1.32 2.64 2.64 4 4 C3.67 4.99 3.34 5.98 3 7 C2.34 7 1.68 7 1 7 C0.67 7.99 0.34 8.98 0 10 C0 6.7 0 3.4 0 0 Z " fill="#D8AB91" transform="translate(7,21)"/>
<path d="M0 0 C0.66 0.33 1.32 0.66 2 1 C-1.49087093 5.0042343 -3.64951939 6.62671065 -9 7 C-6.03716687 4.61327331 -3.05729491 2.2646629 0 0 Z " fill="#FCFDAC" transform="translate(33,18)"/>
<path d="M0 0 C0.66 0 1.32 0 2 0 C3.35439668 2.70879335 3.06501451 5.00933268 3 8 C2.34 8 1.68 8 1 8 C0.67 5.36 0.34 2.72 0 0 Z " fill="#CB6561" transform="translate(29,30)"/>
<path d="M0 0 C0.66 0 1.32 0 2 0 C2.625 2.8125 2.625 2.8125 3 6 C2.34 6.99 1.68 7.98 1 9 C-0.4783226 6.04335481 -0.06032783 3.25770263 0 0 Z " fill="#C57065" transform="translate(38,20)"/>
<path d="M0 0 C0.66 0 1.32 0 2 0 C2 3 2 3 0.625 4.5 C0.08875 4.995 -0.4475 5.49 -1 6 C-1.66 6.99 -2.32 7.98 -3 9 C-3.75 7.3125 -3.75 7.3125 -4 5 C-2.1875 2.25 -2.1875 2.25 0 0 Z " fill="#D0B889" transform="translate(39,16)"/>
</svg>
